<?xml version="1.0" encoding="UTF-8"?>
<svg id="Layer_1" data-name="Layer 1" xmlns="http://www.w3.org/2000/svg" viewBox="0 0 64 64">
  <defs>
    <style>
      .cls-1 {
        fill: #cfd4e2;
      }

      .cls-2 {
        fill: #334d6d;
      }

      .cls-3 {
        fill: #032b47;
      }

      .cls-4 {
        fill: #b9d0dd;
      }

      .cls-5 {
        fill: #7b8b9e;
      }
    </style>
  </defs>
  <g>
    <rect class="cls-1" x="6.866" y="27.411" width="4.06" height="15.27"/>
    <rect class="cls-4" x="13.455" y="21.116" width="4.06" height="21.588"/>
    <rect class="cls-4" x="20.045" y="23.986" width="4.06" height="18.579"/>
    <rect class="cls-4" x="26.634" y="17.728" width="4.06" height="26.149"/>
    <rect class="cls-4" x="33.224" y="19.426" width="4.06" height="24.056"/>
    <rect class="cls-4" x="39.813" y="14.674" width="4.06" height="27.868"/>
    <rect class="cls-1" x="46.403" y="24.032" width="4.06" height="18.603"/>
    <rect class="cls-1" x="52.993" y="30.297" width="4.06" height="12.361"/>
  </g>
  <g>
    <path class="cls-2" d="M10.102,27.409h-3.237v15.267h4.06v-9.32c-.567-1.938-.84-3.943-.824-5.947Z"/>
    <path class="cls-2" d="M13.455,38.83v3.869h3.295c-.217-.2-.432-.404-.643-.614-1.012-1.012-1.896-2.104-2.652-3.255Z"/>
    <path class="cls-2" d="M47.087,39.688l2.942,2.942h.434v-10.051l-1.4,4.136s-.882,1.458-1.977,2.973Z"/>
    <rect class="cls-2" x="52.993" y="23.153" width="4.06" height="19.5"/>
    <rect class="cls-2" x="59.327" y="28.026" width="4.06" height="14.627"/>
    <rect class="cls-2" x=".613" y="31.193" width="4.06" height="11.46"/>
    <path class="cls-3" d="M50.029,42.63h-3.626v-18.6h4.06v8.549l.152-.448c1.505-6.642-.323-13.887-5.495-19.059-8.012-8.012-21.001-8.012-29.013,0-3.963,3.963-5.962,9.143-6.005,14.337h.824v5.947c.559,1.912,1.402,3.759,2.529,5.474v-17.715h4.06v21.584h-.765c7.284,6.688,18.228,7.156,26.024,1.404l12.833,12.833,4.364-4.364-9.943-9.943ZM24.105,43.476h-4.06v-19.492h4.06v19.492ZM30.695,43.557h-4.06v-25.83h4.06v25.83ZM37.284,43.72h-4.06v-24.294h4.06v24.294ZM43.874,42.537h-4.06V14.674h4.06v27.863Z"/>
  </g>
  <path class="cls-5" d="M16.107,13.072c-8.012,8.012-8.012,21.001,0,29.013,7.27,7.27,18.638,7.942,26.667,2.018l12.833,12.833,4.364-4.364-12.885-12.885c1.095-1.515,1.977-2.973,1.977-2.973l1.551-4.584c1.505-6.642-.323-13.887-5.495-19.059-8.012-8.012-21.001-8.012-29.013,0ZM41.917,38.637c-6.248,6.248-16.379,6.248-22.627,0-6.248-6.248-6.248-16.379,0-22.627s16.379-6.248,22.627,0,6.248,16.379,0,22.627Z"/>
</svg>