<?xml version="1.0" encoding="UTF-8"?>
<svg id="Layer_1" data-name="Layer 1" xmlns="http://www.w3.org/2000/svg" xmlns:xlink="http://www.w3.org/1999/xlink" viewBox="0 0 64 64">
  <defs>
    <style>
      .cls-1 {
        fill: none;
      }

      .cls-2 {
        fill: #8fa4b7;
      }

      .cls-3 {
        fill: #495e7c;
      }

      .cls-4 {
        fill: #1c4169;
      }

      .cls-5 {
        fill: url(#linear-gradient);
      }

      .cls-6 {
        fill: #133451;
      }

      .cls-7 {
        fill: #d3d8e1;
      }

      .cls-8 {
        fill: #90a1b0;
      }
    </style>
    <linearGradient id="linear-gradient" x1="38.521" y1="43.167" x2="61.071" y2="43.167" gradientUnits="userSpaceOnUse">
      <stop offset="0" stop-color="#fff"/>
      <stop offset=".154" stop-color="#e9edf0"/>
      <stop offset=".472" stop-color="#b3bfca"/>
      <stop offset=".747" stop-color="#8093a6"/>
    </linearGradient>
  </defs>
  <rect class="cls-2" x="4.037" y="1.66" width="56.061" height="56.266"/>
  <polygon class="cls-3" points="6.128 57.361 15.13 34.446 20.859 45.358 27.27 23.67 36.818 29.535 58.233 1.846 60.098 1.66 59.461 57.361 6.128 57.361"/>
  <polygon class="cls-1" points="47.449 22.775 47.449 17.312 43.494 22.775 47.449 22.775"/>
  <rect class="cls-1" x="38.793" y="36.378" width="8.657" height="8.657"/>
  <rect class="cls-1" x="49.923" y="25.248" width="8.657" height="8.657"/>
  <polygon class="cls-1" points="38.793 33.905 47.449 33.905 47.449 25.248 41.704 25.248 38.793 29.269 38.793 33.905"/>
  <rect class="cls-1" x="49.923" y="47.509" width="8.657" height="8.657"/>
  <polygon class="cls-1" points="13.192 36.378 5.402 36.378 5.402 45.035 9.715 45.035 11.307 41.072 13.192 36.378"/>
  <path class="cls-1" d="M8.476,52.921c-.162,0-.326-.031-.485-.094-.668-.268-.993-1.028-.724-1.696l1.455-3.622h-3.319v8.657h8.657v-8.657h-2.527l-1.845,4.594c-.205.509-.694.818-1.211.818Z"/>
  <polygon class="cls-1" points="12.525 45.035 14.059 45.035 14.059 41.216 13.904 41.601 12.525 45.035"/>
  <polygon class="cls-1" points="16.532 45.035 18.969 45.035 16.532 40.394 16.532 45.035"/>
  <polygon class="cls-1" points="25.189 45.035 25.189 36.378 24.901 36.378 22.481 45.035 25.189 45.035"/>
  <rect class="cls-1" x="5.402" y="2.988" width="8.657" height="8.657"/>
  <rect class="cls-1" x="16.532" y="2.988" width="8.657" height="8.657"/>
  <rect class="cls-1" x="16.532" y="14.118" width="8.657" height="8.657"/>
  <rect class="cls-1" x="27.663" y="14.118" width="8.657" height="8.657"/>
  <rect class="cls-1" x="38.793" y="47.509" width="8.657" height="8.657"/>
  <rect class="cls-1" x="27.663" y="2.988" width="8.657" height="8.657"/>
  <polygon class="cls-1" points="22.193 36.378 17.369 36.378 20.517 42.375 22.193 36.378"/>
  <rect class="cls-1" x="27.663" y="47.509" width="8.657" height="8.657"/>
  <rect class="cls-1" x="5.402" y="14.118" width="8.657" height="8.657"/>
  <rect class="cls-1" x="27.663" y="36.378" width="8.657" height="8.657"/>
  <rect class="cls-1" x="16.532" y="47.509" width="8.657" height="8.657"/>
  <rect class="cls-1" x="5.402" y="25.248" width="8.657" height="8.657"/>
  <rect class="cls-1" x="49.923" y="36.378" width="8.657" height="8.657"/>
  <polygon class="cls-1" points="25.189 25.657 25.189 25.248 16.532 25.248 16.532 33.905 22.884 33.905 24.454 28.287 25.189 25.657"/>
  <polygon class="cls-1" points="38.793 14.118 38.793 22.775 40.275 22.775 46.542 14.118 38.793 14.118"/>
  <path class="cls-1" d="M51.416,16.743l-1.493-1.362v7.393h8.657v-8.657h-5.498l-.494,2.253c-.117.534-.768.741-1.172.372Z"/>
  <path class="cls-1" d="M44.943,9.398l2.506-.797V2.988h-8.657v8.657h7.033l-1.146-1.045c-.404-.368-.257-1.035.263-1.201Z"/>
  <polygon class="cls-1" points="27.663 26.495 27.663 33.905 36.319 33.905 36.319 30.605 27.837 25.872 27.663 26.495"/>
  <polygon class="cls-1" points="36.319 25.248 32.069 25.248 36.319 27.62 36.319 25.248"/>
  <path class="cls-1" d="M49.923,7.815l3.709-1.179c.521-.166,1.026.295.908.829l-.916,4.18h4.955V2.988h-8.657v4.827Z"/>
  <rect class="cls-6" x="43.409" y="13.103" height="10.687"/>
  <polygon class="cls-6" points="49.923 15.381 49.923 15.381 51.416 16.743 49.923 15.381"/>
  <polygon class="cls-6" points="25.189 25.657 25.189 25.657 24.454 28.287 25.189 25.657"/>
  <rect class="cls-6" x="23.691" y="36.212" height="8.989"/>
  <rect class="cls-6" x="17.75" y="40.093" height="5.242"/>
  <polygon class="cls-6" points="20.517 42.375 17.369 36.378 17.369 36.378 20.517 42.375"/>
  <polygon class="cls-6" points="13.192 36.378 13.192 36.378 11.307 41.072 13.192 36.378"/>
  <polygon class="cls-6" points="13.904 41.601 14.059 41.216 14.059 41.216 13.904 41.601"/>
  <rect class="cls-6" x="34.194" y="24" height="4.867"/>
  <polygon class="cls-6" points="27.837 25.872 36.319 30.605 36.319 30.605 27.837 25.872"/>
  <path class="cls-7" d="M61.006,1.796v-.298c0-.543-.441-.983-.983-.983H3.93c-.543,0-.983.441-.983.983v.399c-.011.059-.018.12-.018.182v54.996c0,.025.006.048.007.073,0,0,0,.001,0,.002v.507c0,.543.441.983.983.983h56.141c.543,0,.983-.441.983-.983v-.485c.003-.032.01-.063.01-.096V2.079c0-.099-.019-.193-.046-.283ZM27.663,2.988h8.657v8.657h-8.657V2.988ZM27.663,14.118h8.657v8.657h-8.657v-8.657ZM16.532,2.988h8.657v8.657h-8.657V2.988ZM16.532,14.118h8.657v8.657h-8.657v-8.657ZM5.402,2.988h8.657v8.657H5.402V2.988ZM5.402,14.118h8.657v8.657H5.402v-8.657ZM5.402,25.248h8.657v8.657H5.402v-8.657ZM25.189,56.165h-8.657v-8.657h8.657v8.657ZM36.319,56.165h-8.657v-8.657h8.657v8.657ZM36.319,45.035h-8.657v-8.657h8.657v8.657ZM47.449,56.165h-8.657v-8.657h8.657v8.657ZM47.449,45.035h-8.657v-8.657h8.657v8.657ZM58.579,56.165h-8.657v-8.657h8.657v8.657ZM58.579,45.035h-8.657v-8.657h8.657v8.657ZM58.579,33.905h-8.657v-8.657h8.657v8.657ZM58.579,11.645h-4.955l-.542,2.474h5.498v8.657h-8.657v-7.393l-.648-.591-1.825,2.521v5.463h-3.955l-1.791,2.474h5.745v8.657h-8.657v-4.635l-.721.996c-.388.536-1.115.697-1.691.374l-.061-.034v3.3h-8.657v-7.409l-1.23,4.402-1.532,5.481h.289v8.657h-2.708l-.336,1.203c-.144.515-.587.889-1.119.946-.527.052-1.043-.217-1.292-.691l-.766-1.459h-2.437v-4.642l-1.214-2.313-1.259,3.136v3.819h-1.534l-.993,2.474h2.527v8.657H5.402v-8.657h3.319l.994-2.474h-4.312v-8.657h7.79l.758-1.888c.19-.472.636-.79,1.144-.816.505-.024.984.246,1.221.696l1.054,2.009h4.824l.691-2.474h-6.352v-8.657h8.657v.409l.582-2.081c.108-.385.386-.699.755-.853.369-.153.787-.13,1.136.065l4.407,2.459h4.25v2.371l.32.178,3.636-5.023h-1.483v-8.657h7.749l.794-1.096-1.51-1.377h-7.033V2.988h8.657v5.613l.969-.308,1.505-.478V2.988h8.657v8.657Z"/>
  <polygon class="cls-8" points="17.369 36.378 16.315 34.37 17.369 36.378 17.369 36.378"/>
  <polygon class="cls-8" points="13.95 34.49 13.192 36.378 13.192 36.378 13.95 34.49"/>
  <polygon class="cls-8" points="14.059 41.216 15.318 38.081 14.059 41.216 14.059 41.216"/>
  <polygon class="cls-8" points="15.318 38.081 16.532 40.394 16.532 40.394 15.318 38.081"/>
  <polygon class="cls-8" points="25.771 23.576 25.189 25.657 25.189 25.657 25.771 23.576"/>
  <polygon class="cls-8" points="32.069 25.248 27.662 22.789 32.069 25.248 32.069 25.248"/>
  <polygon class="cls-8" points="24.901 36.378 26.432 30.897 24.901 36.378 24.901 36.378"/>
  <polygon class="cls-8" points="47.336 13.022 46.542 14.118 46.542 14.118 47.336 13.022"/>
  <polygon class="cls-8" points="49.923 7.815 48.418 8.294 49.923 7.815 49.923 7.815"/>
  <polygon class="cls-8" points="49.275 14.79 49.923 15.381 49.923 15.381 49.275 14.79"/>
  <polygon class="cls-8" points="40.275 22.775 36.639 27.798 40.275 22.775 40.275 22.775"/>
  <polygon class="cls-8" points="36.319 30.605 36.38 30.639 36.319 30.605 36.319 30.605"/>
  <polygon class="cls-8" points="36.639 27.798 36.319 27.62 36.319 27.62 36.639 27.798"/>
  <polygon class="cls-8" points="22.145 46.239 22.481 45.035 22.481 45.035 22.145 46.239"/>
  <polygon class="cls-8" points="18.969 45.035 19.734 46.494 18.969 45.035 18.969 45.035"/>
  <rect class="cls-6" x="45.472" y="16.671" height="6.744"/>
  <rect class="cls-6" x="40.248" y="24.777" height="4.964"/>
  <polygon class="cls-6" points="11.307 41.072 9.715 45.035 9.715 45.035 11.307 41.072"/>
  <polygon class="cls-6" points="8.721 47.509 8.721 47.509 7.266 51.131 8.721 47.509"/>
  <polygon class="cls-6" points="12.525 45.035 12.525 45.035 13.904 41.601 12.525 45.035"/>
  <polygon class="cls-6" points="22.193 36.378 22.193 36.378 20.517 42.375 22.193 36.378"/>
  <polygon class="cls-6" points="24.454 28.287 22.884 33.905 22.884 33.905 24.454 28.287"/>
  <polygon class="cls-6" points="52.588 16.371 53.082 14.118 53.082 14.118 52.588 16.371"/>
  <polygon class="cls-6" points="27.663 26.495 27.663 26.495 27.837 25.872 27.663 26.495"/>
  <polygon class="cls-6" points="53.624 11.645 53.624 11.645 54.54 7.465 53.624 11.645"/>
  <polygon class="cls-6" points="48.418 8.294 47.449 8.602 47.449 8.602 48.418 8.294"/>
  <polygon class="cls-6" points="47.449 17.312 49.275 14.79 47.449 17.312 47.449 17.312"/>
  <polygon class="cls-6" points="45.826 11.645 47.336 13.022 45.826 11.645 45.826 11.645"/>
  <rect class="cls-6" x="53.353" y="11.615" height="2.532"/>
  <rect class="cls-6" x="22.539" y="33.857" height="2.568"/>
  <rect class="cls-6" x="9.218" y="44.939" height="2.666"/>
  <polygon class="cls-6" points="26.432 30.897 27.663 26.495 27.663 26.495 26.432 30.897"/>
  <rect class="cls-6" x="12.028" y="44.939" height="2.666"/>
  <path class="cls-6" d="M53.632,6.636l-3.709,1.179-1.505.478-.969.308-2.506.797c-.521.166-.667.833-.263,1.201l1.146,1.045,1.51,1.377-.794,1.096-6.266,8.657-3.636,5.023-.32-.178-4.25-2.371-4.407-2.459c-.349-.195-.767-.218-1.136-.065-.369.153-.647.468-.755.853l-.582,2.081-.735,2.629-1.57,5.618-.691,2.474-1.676,5.997-3.148-5.997-1.054-2.009c-.237-.45-.716-.721-1.221-.696-.508.026-.954.344-1.144.816l-.758,1.888-1.885,4.694-1.592,3.963-.994,2.474-3.742,7.898c-.268.668.056,1.427.724,1.696.159.064.323.094.485.094.517,0,1.006-.31,1.211-.818l4.132-8.87.993-2.474,1.379-3.434.155-.385,1.259-3.136,1.214,2.313,2.437,4.642.766,1.459c.249.473.764.743,1.292.691.532-.057.975-.431,1.119-.946l.336-1.203,2.419-8.657,1.532-5.481,1.23-4.402.174-.623,8.482,4.733.061.034c.576.323,1.304.162,1.691-.374l.721-.996,2.911-4.021,1.791-2.474,3.955-5.463,1.825-2.521.648.591,1.493,1.362c.404.368,1.055.161,1.172-.372l.494-2.253.542-2.474.916-4.18c.117-.534-.388-.994-.908-.829Z"/>
  <g>
    <path class="cls-4" d="M54.125,63.485l-8.397-.071c-.593-.005-1.07-.491-1.063-1.084l.067-6.337c.006-.586.482-1.059,1.068-1.061l8.313-.036c.593-.003,1.076.477,1.077,1.07l.017,6.444c.002.597-.485,1.08-1.082,1.075Z"/>
    <path class="cls-5" d="M61.071,41.303c0,3.783-2.896,6.711-5.4,9.093-1.255,1.195.662,4.356-1.005,4.961-1.375.499-3.082.905-4.646.905-1.693,0-3.323-.318-4.827-.898-1.666-.642-.235-3.958-1.507-5.166-2.495-2.37-5.166-5.689-5.166-9.366,0-7.244,4.031-10.759,11.275-10.759s11.275,3.986,11.275,11.231Z"/>
  </g>
</svg>