<?xml version="1.0" encoding="UTF-8"?>
<svg id="Layer_1" data-name="Layer 1" xmlns="http://www.w3.org/2000/svg" viewBox="0 0 64 64">
  <defs>
    <style>
      .cls-1 {
        fill: #ccd4db;
      }

      .cls-2 {
        fill: #6f8ba3;
      }

      .cls-3 {
        fill: #495e7c;
      }

      .cls-4 {
        fill: #133451;
      }

      .cls-5 {
        fill: #536376;
      }

      .cls-6 {
        fill: #032b47;
      }

      .cls-7 {
        fill: #013252;
      }

      .cls-8 {
        fill: #304c6f;
      }

      .cls-9 {
        fill: #90a1b0;
      }
    </style>
  </defs>
  <g>
    <rect class="cls-6" x="11.589" y="3.952" width="36.523" height="55.143" rx="6.218" ry="6.218"/>
    <rect class="cls-1" x="14.366" y="7.086" width="30.968" height="48.456" rx="5.367" ry="5.367"/>
    <path class="cls-5" d="M36.31,5.578c-.237,0-.44-.14-.505-.338-.915-2.751-2.901-4.72-5.774-4.72s-4.859,1.969-5.774,4.72c-.066.198-.268.338-.505.338h-.842c-.291,0-.526.205-.526.457v4.322c0,.253.236.457.526.457h13.882c.291,0,.526-.205.526-.457v-4.322c0-.253-.236-.457-.526-.457h-.482Z"/>
  </g>
  <g>
    <rect class="cls-4" x="22.131" y="8.784" width="1.894" height="11.249" transform="translate(37.487 -8.669) rotate(90)"/>
    <rect class="cls-4" x="24.441" y="9.531" width="1.894" height="15.903" transform="translate(42.871 -7.906) rotate(90)"/>
    <rect class="cls-4" x="23.436" y="13.713" width="1.894" height="13.687" transform="translate(44.939 -3.826) rotate(90)"/>
    <rect class="cls-4" x="29.615" y="10.631" width="1.894" height="26.011" transform="translate(54.198 -6.926) rotate(90)"/>
    <rect class="cls-4" x="23.393" y="19.858" width="1.894" height="13.704" transform="translate(51.051 2.37) rotate(90)"/>
    <rect class="cls-4" x="21.077" y="25.231" width="1.894" height="9.106" transform="translate(51.808 7.76) rotate(90)"/>
  </g>
  <path class="cls-2" d="M25.572,33.871c-5.012.099-9.047,4.186-9.047,9.222s4.035,9.123,9.047,9.222v-18.444Z"/>
  <path class="cls-3" d="M26.088,43.389v8.926c4.913-.097,8.876-4.028,9.032-8.926h-9.032Z"/>
  <path class="cls-4" d="M26.141,42.902h8.926c-.097-4.913-4.028-8.876-8.926-9.032v9.032Z"/>
  <g>
    <path class="cls-9" d="M55.833,45.975c-.442-1.557.046-3.515-.365-5.088-.284-1.088-2.948-7.14-3.557-8.043-1.051-1.558-2.934-.796-3.911.566-.895-1.607-2.168-2.608-3.872-.357h0c-.134.141-.252.301-.351.482-.987-1.521-2.519-2.346-4.199-.298-.94-2.176-1.757-4.424-3.008-6.397-1.659-1.313-3.665.408-2.861,2.309l5.279,11.83c-1.486-.43-3.44-2.32-4.948-2.237-1.217.067-1.976,1.393-1.662,2.541.506,1.853,9.321,6.941,10.843,9.357.625.992.83,3.416,2.429,3.097,1.557-1.092,10.059-3.858,10.795-4.899.683-.966-.349-1.947-.61-2.865ZM39.617,33.331c-.002-.005-.004-.01-.007-.015l.039.015h-.033Z"/>
    <rect class="cls-7" x="46.246" y="53.039" width="13.136" height="7.878" transform="translate(-16.131 21.167) rotate(-19.724)"/>
    <rect class="cls-8" x="42.459" y="48.832" width="17.665" height="7.878" transform="translate(-14.8 20.406) rotate(-19.724)"/>
  </g>
</svg>