<?xml version="1.0" encoding="UTF-8"?>
<svg id="Layer_1" data-name="Layer 1" xmlns="http://www.w3.org/2000/svg" xmlns:xlink="http://www.w3.org/1999/xlink" viewBox="0 0 64 64">
  <defs>
    <style>
      .cls-1 {
        fill: url(#linear-gradient-5);
      }

      .cls-2 {
        fill: url(#linear-gradient-4);
      }

      .cls-3 {
        fill: url(#linear-gradient-3);
      }

      .cls-4 {
        fill: url(#linear-gradient-2);
      }

      .cls-5 {
        fill: #6f8ba3;
      }

      .cls-6 {
        fill: url(#linear-gradient);
      }

      .cls-7 {
        fill: #133451;
      }

      .cls-8 {
        fill: #8092a8;
      }
    </style>
    <linearGradient id="linear-gradient" x1="21.54" y1="23.159" x2="42.46" y2="23.159" gradientUnits="userSpaceOnUse">
      <stop offset="0" stop-color="#fff"/>
      <stop offset=".191" stop-color="#e9f0f3"/>
      <stop offset=".563" stop-color="#b7ced8"/>
    </linearGradient>
    <linearGradient id="linear-gradient-2" x1="21.636" y1="28.68" x2="42.337" y2="28.68" xlink:href="#linear-gradient"/>
    <linearGradient id="linear-gradient-3" x1="21.636" y1="33.05" x2="42.337" y2="33.05" xlink:href="#linear-gradient"/>
    <linearGradient id="linear-gradient-4" x1="21.636" y1="37.421" x2="42.337" y2="37.421" xlink:href="#linear-gradient"/>
    <linearGradient id="linear-gradient-5" x1="21.636" y1="41.792" x2="42.337" y2="41.792" xlink:href="#linear-gradient"/>
  </defs>
  <path class="cls-7" d="M29.101.348h6.161s2.416,7.007,6.161,8.457c3.745,1.45,11.356-1.208,11.356-1.208l3.624,4.591s-2.416,6.403-1.208,10.39,8.457,6.524,8.457,6.524v6.524s-7.732,2.779-9.061,6.041c-1.329,3.262,1.691,10.511,1.691,10.511l-4.349,4.349s-7.369-3.504-10.994-1.812c-3.624,1.691-6.041,8.698-6.041,8.698l-6.041.242s-2.054-7.369-6.041-9.302c-3.987-1.933-11.235,1.933-11.235,1.933l-4.349-4.591s3.383-6.161,1.933-10.994S.348,34.295.348,34.295v-5.678s7.732-2.779,9.182-6.161-2.175-10.39-2.175-10.39l4.591-4.712s8.336,2.779,11.598,1.329S29.101.348,29.101.348Z"/>
  <path class="cls-5" d="M43.58,50.405c6.107-3.851,10.167-10.652,10.167-18.405,0-12.011-9.737-21.748-21.748-21.748S10.252,19.989,10.252,32s9.737,21.748,21.748,21.748c2.64,0,6.982-1.07,6.982-1.07l4.599-2.273ZM32.183,48.761c-9.367,0-16.961-7.594-16.961-16.961s7.594-16.961,16.961-16.961,16.961,7.594,16.961,16.961-7.594,16.961-16.961,16.961Z"/>
  <g>
    <ellipse class="cls-6" cx="32" cy="23.159" rx="10.46" ry="4.026"/>
    <path class="cls-4" d="M32,28.616c-4.93,0-9.072-1.279-10.256-3.012-.221.531-.035,3.131-.035,3.131,0,0,2.914,3.02,10.331,3.02s10.172-2.649,10.172-2.649c0,0,.261-2.958.031-3.485-1.199,1.724-5.33,2.995-10.243,2.995Z"/>
    <path class="cls-3" d="M32,32.987c-4.93,0-9.072-1.279-10.256-3.012-.221.531-.035,3.131-.035,3.131,0,0,2.914,3.02,10.331,3.02s10.172-2.649,10.172-2.649c0,0,.261-2.958.031-3.485-1.199,1.724-5.33,2.995-10.243,2.995Z"/>
    <path class="cls-2" d="M32,37.357c-4.93,0-9.072-1.279-10.256-3.012-.221.531-.035,3.131-.035,3.131,0,0,2.914,3.02,10.331,3.02s10.172-2.649,10.172-2.649c0,0,.261-2.958.031-3.485-1.199,1.724-5.33,2.995-10.243,2.995Z"/>
    <path class="cls-1" d="M32,41.728c-4.93,0-9.072-1.279-10.256-3.012-.221.531-.035,3.131-.035,3.131,0,0,2.914,3.02,10.331,3.02s10.172-2.649,10.172-2.649c0,0,.261-2.958.031-3.485-1.199,1.724-5.33,2.995-10.243,2.995Z"/>
  </g>
  <ellipse class="cls-8" cx="25.308" cy="29.226" rx=".798" ry=".862"/>
  <ellipse class="cls-8" cx="25.308" cy="33.598" rx=".798" ry=".862"/>
  <ellipse class="cls-8" cx="25.308" cy="37.938" rx=".798" ry=".862"/>
  <ellipse class="cls-8" cx="25.308" cy="42.341" rx=".798" ry=".862"/>
</svg>