<?xml version="1.0" encoding="UTF-8"?>
<svg id="Layer_1" data-name="Layer 1" xmlns="http://www.w3.org/2000/svg" xmlns:xlink="http://www.w3.org/1999/xlink" viewBox="0 0 64 64">
  <defs>
    <style>
      .cls-1 {
        fill: #ccd4db;
      }

      .cls-2 {
        fill: url(#linear-gradient);
      }

      .cls-3 {
        fill: none;
        stroke: #8c9ec2;
        stroke-miterlimit: 10;
        stroke-width: .654px;
      }

      .cls-4 {
        fill: #536376;
      }

      .cls-5 {
        fill: #032b47;
      }

      .cls-6 {
        fill: #013252;
      }

      .cls-7 {
        fill: #304c6f;
      }

      .cls-8 {
        fill: #90a1b0;
      }
    </style>
    <linearGradient id="linear-gradient" x1="17.458" y1="14.891" x2="45.286" y2="14.891" gradientUnits="userSpaceOnUse">
      <stop offset="0" stop-color="#31475f"/>
      <stop offset="1" stop-color="#013252"/>
    </linearGradient>
  </defs>
  <g>
    <g>
      <rect class="cls-5" x="28.74" y="6.823" width="6.69" height="30.806"/>
      <path class="cls-5" d="M35.405,8.165v29.468s17.594-5.931,21.716-3.066V4.297c-5.831-2.146-21.716,3.868-21.716,3.868Z"/>
      <path class="cls-5" d="M28.76,8.165v29.468s-17.594-5.931-21.716-3.066c0-9.965,0-23.797,0-30.27,5.831-2.146,21.716,3.868,21.716,3.868Z"/>
      <path class="cls-4" d="M31.844,7.158v28.955s-17.619-6.81-22.14-3.995c0-9.791,0-23.382,0-29.743C16.099.266,31.844,7.158,31.844,7.158Z"/>
      <path class="cls-4" d="M31.854,7.164v28.955s17.619-6.81,22.14-3.995c0-9.791,0-23.382,0-29.743-6.396-2.109-22.14,4.783-22.14,4.783Z"/>
      <path class="cls-1" d="M31.853,6.74v28.955s-16.055-8.147-20.013-5.332c0-9.791.634-22.046.634-28.407C18.072-.152,31.853,6.74,31.853,6.74Z"/>
      <path class="cls-1" d="M31.865,6.746v28.955s15.779-8.171,19.736-5.356c0-9.791-.357-22.022-.357-28.383C45.646-.146,31.865,6.746,31.865,6.746Z"/>
    </g>
    <g>
      <path class="cls-3" d="M14.929,6.587c1.545-.314,4.573-.256,7.565.727,2.864.941,4.929,2.235,6.155,3.12"/>
      <path class="cls-3" d="M14.929,9.28c1.545-.314,4.573-.256,7.565.727,2.864.941,4.929,2.235,6.155,3.12"/>
      <path class="cls-3" d="M14.929,11.973c1.545-.314,4.573-.256,7.565.727,2.864.941,4.929,2.235,6.155,3.12"/>
      <path class="cls-3" d="M14.929,14.665c1.545-.314,4.573-.256,7.565.727,2.864.941,4.929,2.235,6.155,3.12"/>
      <path class="cls-3" d="M14.929,17.358c1.545-.314,4.573-.256,7.565.727,2.864.941,4.929,2.235,6.155,3.12"/>
      <path class="cls-3" d="M14.929,20.051c1.545-.314,4.573-.256,7.565.727,2.864.941,4.929,2.235,6.155,3.12"/>
      <path class="cls-3" d="M14.929,22.744c1.545-.314,4.573-.256,7.565.727,2.864.941,4.929,2.235,6.155,3.12"/>
      <path class="cls-3" d="M14.929,25.436c1.545-.314,4.573-.256,7.565.727,2.864.941,4.929,2.235,6.155,3.12"/>
    </g>
    <g>
      <path class="cls-3" d="M48.913,6.587c-1.545-.314-4.573-.256-7.565.727-2.864.941-4.929,2.235-6.155,3.12"/>
      <path class="cls-3" d="M48.913,9.28c-1.545-.314-4.573-.256-7.565.727-2.864.941-4.929,2.235-6.155,3.12"/>
      <path class="cls-3" d="M48.913,11.973c-1.545-.314-4.573-.256-7.565.727-2.864.941-4.929,2.235-6.155,3.12"/>
      <path class="cls-3" d="M48.913,14.665c-1.545-.314-4.573-.256-7.565.727-2.864.941-4.929,2.235-6.155,3.12"/>
      <path class="cls-3" d="M48.913,17.358c-1.545-.314-4.573-.256-7.565.727-2.864.941-4.929,2.235-6.155,3.12"/>
      <path class="cls-3" d="M48.913,20.051c-1.545-.314-4.573-.256-7.565.727-2.864.941-4.929,2.235-6.155,3.12"/>
      <path class="cls-3" d="M48.913,22.744c-1.545-.314-4.573-.256-7.565.727-2.864.941-4.929,2.235-6.155,3.12"/>
      <path class="cls-3" d="M48.913,25.436c-1.545-.314-4.573-.256-7.565.727-2.864.941-4.929,2.235-6.155,3.12"/>
    </g>
  </g>
  <path class="cls-2" d="M31.372,28.805c-4.38,0-8.543-2.101-11.166-5.626l-.197-.273c-1.061-1.499-1.802-3.163-2.205-4.948l-.106-.513c-.159-.855-.239-1.712-.239-2.553,0-7.02,5.253-12.956,12.218-13.807.399-.078,1.246-.096,1.282-.097l.104-.003c.103-.003.206-.007.31-.007.006,0,.661.005.749.017.102.007.22.016.339.029,7.192.56,12.826,6.65,12.826,13.867,0,2.893-.887,5.672-2.566,8.035l-.093.131c-2.619,3.6-6.826,5.748-11.255,5.748ZM29.394,23.178c.976,3.24,1.93,4.406,2.51,4.406h.005c.579,0,1.533-1.166,2.51-4.406h-5.024ZM24.571,23.178c.981,1.862,2.679,3.908,5.474,4.287-.81-1.135-1.425-2.871-1.83-4.287h-3.644ZM35.598,23.178c-.383,1.338-.955,2.972-1.703,4.105,2.217-.698,3.613-2.506,4.447-4.105h-2.744ZM21.631,23.178c1.039,1.221,2.286,2.229,3.683,2.982-.765-.81-1.43-1.807-1.987-2.982h-1.696ZM39.583,23.178c-.501,1.069-1.092,1.992-1.767,2.764,1.242-.727,2.358-1.661,3.298-2.764h-1.532ZM40.052,22.063h1.911c.81-1.192,1.405-2.495,1.774-3.881h-2.691c-.211,1.385-.545,2.688-.994,3.881ZM35.895,22.063h2.963c.479-1.173.836-2.476,1.061-3.881h-3.266c-.142.981-.38,2.364-.758,3.881ZM29.081,22.063h5.651c.326-1.242.606-2.6.801-3.881h-7.252c.194,1.281.474,2.639.801,3.881ZM24.049,22.063h3.868c-.377-1.517-.615-2.9-.758-3.881h-4.185c.229,1.406.59,2.709,1.074,3.881ZM20.781,22.063h2.072c-.453-1.19-.791-2.492-1.006-3.881h-2.84c.369,1.386.964,2.689,1.774,3.881ZM41.188,17.068h2.795c.125-.723.188-1.455.188-2.177,0-.864-.09-1.735-.268-2.592h-2.715c.079.791.119,1.608.119,2.434,0,.773-.04,1.556-.119,2.334ZM36.797,17.068h3.27c.083-.781.126-1.565.126-2.334,0-.82-.044-1.637-.129-2.434h-3.349c.146,1.07.23,2.002.23,2.592,0,.578-.05,1.325-.146,2.177ZM28.13,17.068h7.552c.097-.832.145-1.563.145-2.177,0-.66-.077-1.552-.224-2.592h-7.385c-.151,1.063-.233,1.977-.233,2.592,0,.608.05,1.356.145,2.177ZM22.824,17.068h4.192c-.096-.851-.146-1.599-.146-2.177,0-.59.083-1.523.23-2.592h-4.282c-.083.785-.124,1.585-.124,2.382,0,.787.044,1.589.131,2.387ZM18.762,17.068h2.942c-.084-.795-.126-1.597-.126-2.387,0-.797.04-1.596.119-2.382h-2.855c-.178.858-.267,1.729-.267,2.592,0,.721.063,1.452.188,2.177ZM41.05,11.184h2.571c-.379-1.252-.948-2.432-1.693-3.517h-1.766c.399,1.079.697,2.259.888,3.517ZM36.545,11.184h3.367c-.208-1.278-.529-2.459-.955-3.517h-3.129c.275,1.113.521,2.317.717,3.517ZM28.392,11.184h7.036c-.201-1.177-.461-2.382-.757-3.517h-5.527c-.29,1.115-.547,2.321-.752,3.517ZM22.964,11.184h4.303c.196-1.2.442-2.404.717-3.517h-4.078c-.422,1.059-.738,2.24-.943,3.517ZM19.124,11.184h2.712c.191-1.261.484-2.441.875-3.517h-1.894c-.746,1.086-1.314,2.267-1.693,3.517ZM39.696,6.552h1.373c-.866-1.005-1.88-1.869-3.001-2.561.399.463.763.976,1.092,1.535.184.314.364.659.537,1.026ZM35.532,6.552h2.912c-1.092-2.092-2.62-3.462-4.552-4.086.586.933,1.136,2.302,1.64,4.086ZM29.454,6.552h4.907c-.794-2.675-1.677-4.328-2.382-4.447h-.078s-.063,0-.063,0c-.531.095-1.454,1.318-2.384,4.447ZM24.414,6.552h3.867c.564-1.994,1.183-3.467,1.847-4.396-.089.009-.179.019-.268.029-2.363.468-4.193,1.936-5.446,4.366ZM21.677,6.552h1.491c.472-1.023,1.038-1.916,1.694-2.671-1.195.709-2.273,1.611-3.186,2.671Z"/>
  <g>
    <rect class="cls-6" x="46.229" y="46.892" width="13.516" height="13.052" transform="translate(49.172 -21.725) rotate(41.862)"/>
    <path class="cls-8" d="M48.341,45.776c-2.1-.811-2.973-3.045-5.073-3.856-2.892-.554-7.456-1.427-10.349-1.981l-7.347-.071c-1.012-.01-1.851.78-1.903,1.791h0c-.051,1.003.691,1.87,1.69,1.974l6.163.849s1.455.88.817.811l-6.179-.461c-.235-.026-6.523-1.181-6.733-1.291l-8.177-1.937c-.731-.384-1.628-.248-2.212.337l-.089.089c-.919.919-.656,2.47.515,3.035l12.454,4.633,10.698,2.582c-.155.991,10.316-1.092,10.652-.876l2.26.883c.939.602,2.192.263,2.699-.73l2.342-4.582c.51-.997-1.184-.793-2.229-1.196Z"/>
    <rect class="cls-7" x="46.523" y="42.885" width="7.107" height="16.02" transform="translate(46.746 -20.427) rotate(41.862)"/>
  </g>
</svg>