<?xml version="1.0" encoding="UTF-8"?>
<svg id="Layer_1" data-name="Layer 1" xmlns="http://www.w3.org/2000/svg" viewBox="0 0 64 64">
  <defs>
    <style>
      .cls-1 {
        fill: #41546a;
      }

      .cls-2 {
        fill: #133451;
      }

      .cls-3 {
        fill: #6c7c91;
      }

      .cls-4 {
        fill: none;
        stroke: #6c7c91;
        stroke-miterlimit: 10;
        stroke-width: .447px;
      }

      .cls-5 {
        fill: #8a96a3;
      }

      .cls-6 {
        fill: #7b8b9e;
      }
    </style>
  </defs>
  <rect class="cls-4" x=".86" y=".613" width="62.408" height="62.775" rx="7.992" ry="7.992"/>
  <path class="cls-3" d="M63.174,8.459c-.078-4.346-3.62-7.846-7.985-7.846H8.765C4.401.613.859,4.113.781,8.459h-.049v3.348h62.453v-3.348h-.011Z"/>
  <circle class="cls-5" cx="8.56" cy="6.002" r="2.158"/>
  <circle class="cls-5" cx="14.203" cy="6.002" r="2.158"/>
  <circle class="cls-5" cx="19.92" cy="6.002" r="2.158"/>
  <g>
    <polygon class="cls-2" points="32.376 17.733 42.595 22.319 33.276 28.87 23.584 23.595 32.376 17.733"/>
    <polygon class="cls-1" points="23.584 23.595 23.517 34.326 33.051 38.845 33.276 28.87 23.584 23.595"/>
    <polygon class="cls-6" points="42.595 22.319 41.976 32.508 33.051 38.845 33.276 28.87 42.595 22.319"/>
  </g>
  <g>
    <polygon class="cls-2" points="22.58 35.613 32.293 40.058 22.974 46.609 13.282 41.334 22.58 35.613"/>
    <polygon class="cls-1" points="13.282 41.334 13.282 51.747 22.749 56.584 22.974 46.609 13.282 41.334"/>
    <polygon class="cls-6" points="32.293 40.058 32.03 49.984 22.749 56.584 22.974 46.609 32.293 40.058"/>
  </g>
  <g>
    <polygon class="cls-2" points="42.658 33.996 52.877 38.582 43.558 45.133 33.837 40.108 42.658 33.996"/>
    <polygon class="cls-1" points="33.837 40.108 33.527 50.036 43.333 55.108 43.558 45.133 33.837 40.108"/>
    <polygon class="cls-6" points="52.877 38.582 52.258 48.77 43.333 55.108 43.558 45.133 52.877 38.582"/>
  </g>
</svg>